<svg xmlns="http://www.w3.org/2000/svg" viewBox="0 0 40 40"><defs><style>.cls-1{fill:#c70039;}</style></defs><g id="Layer_2" data-name="Layer 2"><g id="Layer_1-2" data-name="Layer 1"><path class="cls-1" d="M20,0A20,20,0,1,0,40,20,20,20,0,0,0,20,0ZM32.07,32.07a17.07,17.07,0,1,1,5-12.07A17,17,0,0,1,32.07,32.07ZM17.39,9.59l.1,20.64A6.25,6.25,0,0,1,11.21,24l0-8.14A6.24,6.24,0,0,1,17.39,9.59Zm7.32,12.83a6.2,6.2,0,0,0,3.5-5.83c0-4.29-3.28-7-8.45-7H19V23.82a9.8,9.8,0,0,0,8.12,4.32h1.47Zm-2.55-3.14v-5.8a2.9,2.9,0,0,1,0,5.8Z"/></g></g></svg>